<svg xmlns="http://www.w3.org/2000/svg" width="262" height="160"  fill-rule="evenodd" xmlns:v="https://vecta.io/nano"><rect fill="#fff" width="262" height="160" rx="10"/><path d="M100.685 105.426l8.148-50.546h13.024l-8.147 50.546h-13.025m60.268-49.305c-2.575-1.015-6.625-2.121-11.67-2.121-12.877 0-21.941 6.859-22.016 16.682-.082 7.265 6.468 11.317 11.406 13.732 5.075 2.475 6.78 4.059 6.76 6.273-.035 3.385-4.051 4.936-7.796 4.936-5.215 0-7.985-.764-12.268-2.651l-1.675-.805-1.821 11.314c3.037 1.408 8.667 2.63 14.511 2.694 13.685 0 22.577-6.777 22.682-17.265.047-5.761-3.424-10.128-10.94-13.734-4.552-2.344-7.345-3.897-7.313-6.269.003-2.101 2.36-4.35 7.461-4.35 4.26-.069 7.344.915 9.747 1.942l1.17.578 1.764-10.958m17.341 31.387l5.188-14.129c-.076.134 1.073-2.928 1.731-4.822l.879 4.359 3.014 14.591h-10.813zm16.068-32.574h-10.066c-3.122 0-5.459.894-6.827 4.19l-19.342 46.323h13.68l2.738-7.599 16.682.026 1.586 7.573h12.089l-10.541-50.513zm-104.606-.009L77.01 89.383l-1.365-7.005c-2.376-8.071-9.771-16.819-18.042-21.202l11.663 44.206 13.784-.008 20.511-50.452H89.758" fill="#26337a"/><path d="M65.176 54.888H44.173L44 55.936c16.343 4.187 27.156 14.294 31.645 26.443L71.08 59.153c-.787-3.203-3.076-4.153-5.904-4.265" fill="#ec982d"/></svg>