<svg id="b01ea4e6-dbfe-4aa4-a27a-e0babbae57b7" data-name="Layer 1" xmlns="http://www.w3.org/2000/svg"
    viewBox="0 0 140 140">
    <defs>
        <style>
            .b49f364f-8f2f-4430-84ef-3a141b8d74d6 {
                fill: #26c6da;
            }
        </style>
    </defs>
    <title>star-deal-icon</title>
    <path id="b2c2820e-0768-44dd-994a-6191c905e3f7" data-name="Path 4" class="b49f364f-8f2f-4430-84ef-3a141b8d74d6"
        d="M114.19,138.45c-1.78-1.7-34.18-32.31-37.66-35.64l-2.09-2-4.61,6.42c-5.08,7.07-5.62,7.55-7.79,6.92A3.64,3.64,0,0,1,60.38,113a66,66,0,0,1-2.59-7.72c-1.13-3.81-2.14-7-2.26-7.23s-9.87,4-26,11.3S3.33,121,2.77,121a3,3,0,0,1-1.85-.77c-.83-.7-.92-.92-.92-2.53v-1.78l4-4.22C6.15,109.35,15,100,23.54,91L39.16,74.48l-6.44-4.66c-6.33-4.58-7.16-5.38-7.16-6.9a4.39,4.39,0,0,1,1.69-2.82c.3-.15,3.75-1.25,7.67-2.45s7.16-2.17,7.22-2.2S37,43.74,30.61,29.55C23.07,12.78,19,3.42,19,2.8A3.1,3.1,0,0,1,19.79.92c.69-.83.93-.92,2.53-.92H24.1l4.82,4.55C31.57,7.08,40.81,15.84,49.46,24S65.27,38.94,65.39,38.94s2.1-2.71,4.49-6A80.94,80.94,0,0,1,75,26.28a3,3,0,0,1,4.07.08c.77.7,1.19,1.79,3.09,8.21,1.19,4,2.23,7.43,2.32,7.49s11.74-5.06,26-11.45c17.92-8,26.09-11.59,26.81-11.59A2.89,2.89,0,0,1,140,22s0,.08,0,.12a5.3,5.3,0,0,1-.33,2c-.18.32-8.91,9.69-19.46,20.83s-19.14,20.33-19.14,20.45,2.76,2.2,6.12,4.61a65.74,65.74,0,0,1,6.59,5.17,3.14,3.14,0,0,1-.41,3.92c-.77.78-2,1.22-8,3-3.9,1.16-7.23,2.19-7.37,2.35s4.66,11.2,11.23,25.82c6.34,14.06,11.57,26,11.66,26.43a3.33,3.33,0,0,1-1.34,3,6.8,6.8,0,0,1-2.1.3C116,140,115.76,139.91,114.19,138.45ZM85.83,92.08A1.66,1.66,0,0,0,86.18,91c0-.35-1.93-5-4.31-10.25l-4.3-9.57L79.74,69A176.51,176.51,0,0,0,92.43,55.14a1.51,1.51,0,0,0-1.3-1.64c-.39,0-5,1.93-10.32,4.31l-9.6,4.34L69.73,60.7c-7.85-7.49-13.26-12.52-13.94-13-1.1-.7-2.29-.24-2.29.89a109.93,109.93,0,0,0,4.31,10.34l4.31,9.54-.7.78c-.39.41-3.54,3.74-7,7.43s-6.51,7-6.75,7.35A1.48,1.48,0,0,0,48,86.12a.54.54,0,0,0,.18.11c.47.24,2.25-.44,10.25-4,5.35-2.37,9.87-4.31,10.08-4.25s3.84,3.33,8,7.31C84.14,92.47,84.88,93,85.83,92.08Z"
        transform="translate(0)" />
</svg>