<svg xmlns="http://www.w3.org/2000/svg" xmlns:xlink="http://www.w3.org/1999/xlink" viewBox="0 0 2390.9 278.65"
    xmlns:v="https://vecta.io/nano">
    <path
        d="M1261.8 66.95h211.7v211.7h-211.7zm229.4 0h211.7v211.7h-211.7zm229.3 0h211.7v211.7h-211.7zm229.4 0h211.7v211.7h-211.7zm229.3 0h211.7v211.7h-211.7z"
        fill="#00b67a" />
    <g fill="#fff">
        <use xlink:href="#B" />
        <use xlink:href="#B" x="229.3" />
        <path
            d="M1826.4 209.65l32.2-8.2 13.5 41.5zm74.1-53.6h-56.7l-17.4-53.4-17.4 53.4h-56.7l45.9 33.1-17.4 53.4 45.8-33.1 28.2-20.3 45.7-33.1zm155.2 53.6l32.2-8.2 13.5 41.5zm74.1-53.6h-56.7l-17.4-53.4-17.4 53.4h-56.7l45.9 33.1-17.4 53.4 45.9-33.1 28.2-20.3 45.6-33.1zm155.3 53.6l32.2-8.2 13.5 41.5zm74.1-53.6h-56.7l-17.4-53.4-17.4 53.4H2211l45.9 33.1-17.4 53.4 45.9-33.1 28.2-20.3 45.6-33.1z" />
    </g>
    <path
        d="M1261.8 66.94h211.71v211.71H1261.8zm229.35 0h211.71v211.71h-211.71zm229.35 0h211.71v211.71H1720.5zm229.35 0h211.71v211.71h-211.71z"
        fill="#00b67a" />
    <path d="M2285.05 66.94h105.85v211.71h-105.85z" fill="#dcdce6" />
    <path d="M2179.19 66.94h105.85v211.71h-105.85z" fill="#00b67a" />
    <path
        d="M1367.65 209.62l32.2-8.15 13.45 41.45zm74.1-53.58h-56.68l-17.42-53.37-17.42 53.37h-56.63l45.87 33.08-17.47 53.33 45.87-33 28.23-20.28 45.65-33.08zM1597 209.62l32.2-8.15 13.45 41.45zm74.1-53.58h-56.68L1597 102.67l-17.4 53.37h-56.7l45.87 33.08-17.42 53.33 45.87-33 28.23-20.28 45.65-33.08zm155.25 53.58l32.25-8.17 13.45 41.45zm74.1-53.58h-56.68l-17.42-53.37-17.42 53.37h-56.68l45.87 33.08-17.42 53.33 74.13-53.28 45.65-33.08zm155.25 53.58l32.2-8.15 13.45 41.45zm74.1-53.58h-56.68l-17.42-53.37-17.42 53.37h-56.68l45.87 33.08-17.42 53.33 45.87-33 28.23-20.28 45.65-33.08zm155.25 53.58l32.19-8.15 13.46 41.45zm74.09-53.58h-56.67l-17.42-53.37-17.45 53.37h-56.68l45.87 33.08-17.39 53.33 45.87-33 28.22-20.28 45.65-33.08z"
        fill="#fff" />
    <path
        d="M297.7 98.6h114.7V120h-45.1v120.3h-24.8V120h-44.9V98.6zm109.8 39.1h21.2v19.8h.4a23.27 23.27 0 0 1 3.9-8.1 36.06 36.06 0 0 1 6.9-7.2 36.77 36.77 0 0 1 9-5.3 27.53 27.53 0 0 1 10.1-2l5.5.2s2 .3 3.1.4v21.8l-4.9-.7a41.54 41.54 0 0 0-4.9-.3 26.5 26.5 0 0 0-10.8 2.3 24.89 24.89 0 0 0-8.8 6.7 34 34 0 0 0-6 11 46.62 46.62 0 0 0-2.2 15.1v48.8h-22.6V137.7zm164 102.6h-22.2V226h-.4a30.83 30.83 0 0 1-12.4 12.45 33.92 33.92 0 0 1-16.8 4.7c-13.5 0-23.3-3.3-29.3-10s-9-16.8-9-30.3v-65.1H504v62.9c0 9 1.7 15.4 5.2 19.1s8.3 5.6 14.5 5.6a27.8 27.8 0 0 0 11.9-2.2 20.07 20.07 0 0 0 7.7-5.9 22.65 22.65 0 0 0 4.3-8.8 43.34 43.34 0 0 0 1.3-11.1v-59.5h22.6zm38.5-32.85c.7 6.6 3.2 11.2 7.5 13.9a30.26 30.26 0 0 0 15.7 4 67.14 67.14 0 0 0 7.2-.5 30.23 30.23 0 0 0 7.6-1.9 14.61 14.61 0 0 0 5.9-4.1 9.94 9.94 0 0 0 2.1-7 9.66 9.66 0 0 0-3.2-7.1 22.53 22.53 0 0 0-7.6-4.5 76.29 76.29 0 0 0-10.6-2.9l-12.1-2.6a114.85 114.85 0 0 1-12.2-3.4 37.25 37.25 0 0 1-10.5-5.4 23.75 23.75 0 0 1-7.4-8.6c-1.9-3.5-2.8-7.8-2.8-13a23.43 23.43 0 0 1 4.1-14 31.08 31.08 0 0 1 10.3-9.1 47.74 47.74 0 0 1 13.9-4.9 84.63 84.63 0 0 1 14.6-1.4 68.07 68.07 0 0 1 15.2 1.7 39.18 39.18 0 0 1 13.1 5.5 32.39 32.39 0 0 1 9.7 9.8 34.11 34.11 0 0 1 4.9 14.6h-23.6c-1.1-5.4-3.5-9.1-7.4-10.9a30.31 30.31 0 0 0-13.4-2.8 42.07 42.07 0 0 0-5.7.4 31.2 31.2 0 0 0-6.2 1.5 13.44 13.44 0 0 0-4.9 3.2 7.73 7.73 0 0 0-2 5.5 8.55 8.55 0 0 0 2.9 6.7 24.25 24.25 0 0 0 7.5 4.3 76.29 76.29 0 0 0 10.6 2.9l12.3 2.6c4.2.9 8.1 2.1 12.1 3.4a36.53 36.53 0 0 1 10.6 5.4 26.62 26.62 0 0 1 7.5 8.5 25.92 25.92 0 0 1 2.9 12.7 27.63 27.63 0 0 1-4.2 15.5 33.24 33.24 0 0 1-10.8 10.3 50.78 50.78 0 0 1-14.8 5.8 74.26 74.26 0 0 1-16.1 1.8 68.3 68.3 0 0 1-18-2.2 43.82 43.82 0 0 1-14.3-6.6 32.73 32.73 0 0 1-9.5-11.1 36.44 36.44 0 0 1-3.7-15.8H610zm74.6-69.7h17.1v-30.8h22.6v30.8h20.4v16.9h-20.4v54.8a55.9 55.9 0 0 0 .3 6.2 11.4 11.4 0 0 0 1.4 4.4 6.41 6.41 0 0 0 3.3 2.7 16.12 16.12 0 0 0 6 .9c1.6 0 3.2 0 4.8-.1a26.48 26.48 0 0 0 4.8-.7v17.5l-7.3.8a58.46 58.46 0 0 1-7.3.4 50.59 50.59 0 0 1-14.4-1.7 18.69 18.69 0 0 1-8.5-5 17.35 17.35 0 0 1-4.2-8.2 61.65 61.65 0 0 1-1.3-11.3v-60.5h-17.1v-17.1zm76.1 0h21.4v13.9h.4a27.92 27.92 0 0 1 13.3-12.8 43.83 43.83 0 0 1 18.5-3.9c8.1 0 15.1 1.4 21.1 4.3a41.24 41.24 0 0 1 15 11.7 51.19 51.19 0 0 1 8.9 17.4 72.91 72.91 0 0 1 3 21.2 73.7 73.7 0 0 1-2.7 20 53.53 53.53 0 0 1-8.1 17.2 39.77 39.77 0 0 1-13.8 11.9 40.93 40.93 0 0 1-19.7 4.5 55.24 55.24 0 0 1-9.9-.9 43.58 43.58 0 0 1-9.5-2.9 34.3 34.3 0 0 1-8.4-5.1 31.68 31.68 0 0 1-6.5-7.2h-.4v51.2h-22.6zm79 51.4a51.08 51.08 0 0 0-1.8-13.5 36.41 36.41 0 0 0-5.4-11.6 27.52 27.52 0 0 0-8.9-8.1 25 25 0 0 0-12.3-3.1c-9.5 0-16.7 3.3-21.5 9.9s-7.2 15.4-7.2 26.4a50.68 50.68 0 0 0 1.9 14.4 32.16 32.16 0 0 0 5.7 11.4 27 27 0 0 0 9 7.5 28.2 28.2 0 0 0 25.3-.4 27.67 27.67 0 0 0 8.8-8.2 34.07 34.07 0 0 0 5-11.5 64.28 64.28 0 0 0 1.4-13.25zm39.9-90.55h22.6V120h-22.6zm0 39.1h22.6v102.6h-22.6zm42.8-39.1H945v141.7h-22.6zm91.9 144.5a55.89 55.89 0 0 1-21.9-4.1 45.89 45.89 0 0 1-26.4-28.3 66 66 0 0 1-3.5-21.8 65.23 65.23 0 0 1 3.5-21.6 48.77 48.77 0 0 1 10.1-17.1 46.06 46.06 0 0 1 16.3-11.2 60.54 60.54 0 0 1 43.8 0 45.89 45.89 0 0 1 26.4 28.3 65.23 65.23 0 0 1 3.5 21.6 66 66 0 0 1-3.5 21.8 48.77 48.77 0 0 1-10.1 17.1 46.06 46.06 0 0 1-16.3 11.2 55.89 55.89 0 0 1-21.9 4.1zm0-17.9a26.21 26.21 0 0 0 13.1-3.2 27.88 27.88 0 0 0 9.1-8.3 37.26 37.26 0 0 0 5.3-11.6 51.71 51.71 0 0 0 0-26.3 34.21 34.21 0 0 0-5.3-11.6 27.59 27.59 0 0 0-9.1-8.2 28.41 28.41 0 0 0-26.2 0 28.72 28.72 0 0 0-9.1 8.2 36.24 36.24 0 0 0-5.3 11.6 51.71 51.71 0 0 0 0 26.3 35.12 35.12 0 0 0 5.3 11.6 27.88 27.88 0 0 0 9.1 8.3 25.2 25.2 0 0 0 13.1 3.2zm58.4-87.5h17.1v-30.8h22.6v30.8h20.4v16.9h-20.4v54.85a55.9 55.9 0 0 0 .3 6.2 11.4 11.4 0 0 0 1.4 4.4 6.41 6.41 0 0 0 3.3 2.7 16.12 16.12 0 0 0 6 .9c1.6 0 3.2 0 4.8-.1a26.48 26.48 0 0 0 4.8-.7v17.5l-7.3.8a58.46 58.46 0 0 1-7.3.4 50.59 50.59 0 0 1-14.4-1.7 18.69 18.69 0 0 1-8.5-5 17.35 17.35 0 0 1-4.2-8.2 61.65 61.65 0 0 1-1.3-11.3v-60.5h-17.1v-17.1z"
        fill="#191919" />
    <path d="M271.3 98.6H167.7L135.7 0l-32.1 98.6L0 98.5l83.9 61L51.8 258l83.9-60.9 83.8 60.9-32-98.5 83.8-60.9z"
        fill="#00b67a" />
    <path d="M194.7 181.8l-7.2-22.3-51.8 37.6 59-15.3z" fill="#005128" />
    <defs>
        <path id="B"
            d="M1367.7 209.65l32.2-8.2 13.5 41.5zm74.1-53.6h-56.7l-17.4-53.4-17.4 53.4h-56.7l45.9 33.1-17.4 53.4 45.9-33.1 28.2-20.3z" />
    </defs>
</svg>